<?xml version="1.0" encoding="UTF-8" standalone="no"?>
<!-- Created with Inkscape (http://www.inkscape.org/) -->

<svg
   xmlns:dc="http://purl.org/dc/elements/1.1/"
   xmlns:cc="http://creativecommons.org/ns#"
   xmlns:rdf="http://www.w3.org/1999/02/22-rdf-syntax-ns#"
   xmlns:svg="http://www.w3.org/2000/svg"
   xmlns="http://www.w3.org/2000/svg"
   xmlns:sodipodi="http://sodipodi.sourceforge.net/DTD/sodipodi-0.dtd"
   xmlns:inkscape="http://www.inkscape.org/namespaces/inkscape"
   width="1024"
   height="1024"
   viewBox="0 0 270.93333 270.93334"
   version="1.1"
   id="svg853"
   inkscape:version="0.92.2 5c3e80d, 2017-08-06"
   sodipodi:docname="favicon.svg">
  <defs
     id="defs847" />
  <sodipodi:namedview
     id="base"
     pagecolor="#ffffff"
     bordercolor="#666666"
     borderopacity="1.0"
     inkscape:pageopacity="0.0"
     inkscape:pageshadow="2"
     inkscape:zoom="0.22900391"
     inkscape:cx="668.57106"
     inkscape:cy="-26.661356"
     inkscape:document-units="mm"
     inkscape:current-layer="layer1"
     showgrid="false"
     units="px"
     fit-margin-top="0"
     fit-margin-left="0"
     fit-margin-right="0"
     fit-margin-bottom="0"
     inkscape:window-width="1920"
     inkscape:window-height="1151"
     inkscape:window-x="0"
     inkscape:window-y="1"
     inkscape:window-maximized="1" />
  <metadata
     id="metadata850">
    <rdf:RDF>
      <cc:Work
         rdf:about="">
        <dc:format>image/svg+xml</dc:format>
        <dc:type
           rdf:resource="http://purl.org/dc/dcmitype/StillImage" />
        <dc:title></dc:title>
      </cc:Work>
    </rdf:RDF>
  </metadata>
  <g
     inkscape:label="Layer 1"
     inkscape:groupmode="layer"
     id="layer1"
     transform="translate(11.793008,464.09267)">
    <g
       id="g834"
       transform="matrix(64.000003,0,0,64.000003,-31174.189,-19201.158)"
       inkscape:export-xdpi="96"
       inkscape:export-ydpi="96">
      <rect
         ry="0.546875"
         y="292.76663"
         x="486.91241"
         height="4.2333331"
         width="4.2333331"
         id="rect828"
         style="color:#000000;clip-rule:nonzero;display:inline;overflow:visible;visibility:visible;opacity:1;isolation:auto;mix-blend-mode:normal;color-interpolation:sRGB;color-interpolation-filters:linearRGB;solid-color:#000000;solid-opacity:1;fill:#000000;fill-opacity:1;fill-rule:nonzero;stroke:none;stroke-width:0.08983442;stroke-linecap:round;stroke-linejoin:round;stroke-miterlimit:4;stroke-dasharray:none;stroke-dashoffset:0;stroke-opacity:1;paint-order:fill markers stroke;color-rendering:auto;image-rendering:auto;shape-rendering:auto;text-rendering:auto;enable-background:accumulate" />
      <path
         style="fill:#ffffff;fill-opacity:1;fill-rule:nonzero;stroke:#ffffff;stroke-width:0.12507659;stroke-linecap:round;stroke-linejoin:round;stroke-miterlimit:4;stroke-dasharray:none;stroke-opacity:1;paint-order:fill markers stroke"
         d="M 489.43265,293.52744 C 489.42686,293.52748 489.42097,293.52766 489.415,293.52796 489.37169,293.53022 489.32518,293.53906 489.27485,293.55675 489.15624,293.58359 489.04377,293.63352 488.94392,293.7038 L 488.94287,293.70459 488.94205,293.70566 C 488.82341,293.83315 488.68057,293.93567 488.52159,294.00752 L 488.52236,294.00712 C 488.51243,294.01095 488.50476,294.01862 488.50163,294.02746 488.49857,294.03631 488.49973,294.04545 488.5032,294.05321 488.51048,294.06855 488.52935,294.08044 488.54971,294.07425 488.66213,294.04437 488.77113,294.0029 488.87523,293.9507 V 293.9503 C 488.95701,293.90647 489.01961,293.83698 489.09636,293.79403 L 489.09715,293.79324 C 489.19466,293.72493 489.30258,293.67234 489.41659,293.63696 489.48108,293.62281 489.56018,293.65387 489.63737,293.69957 489.71452,293.74528 489.789,293.80327 489.84807,293.83855 489.8585,293.84583 489.87038,293.84818 489.88083,293.84582 489.89112,293.84356 489.89961,293.83737 489.90569,293.82931 489.91146,293.82124 489.91494,293.81132 489.91375,293.80051 489.91267,293.7898 489.90688,293.77909 489.89655,293.77172 489.74286,293.64346 489.61307,293.5259 489.43265,293.52744 Z M 489.2541,293.92209 C 489.22918,293.92216 489.209,293.93897 489.20006,293.95916 489.19542,293.97027 489.19347,293.98255 489.19662,293.99444 489.19967,294.00672 489.20773,294.01822 489.22001,294.0255 L 489.2204,294.0259 H 489.2208 C 489.28717,294.06089 489.34897,294.10306 489.40578,294.1522 V 294.15259 C 489.48572,294.21864 489.47263,294.34346 489.38091,294.39182 489.36207,294.40215 489.35783,294.42406 489.36482,294.43939 489.36784,294.44706 489.37392,294.45443 489.38242,294.45788 489.39047,294.4617 489.40125,294.46131 489.41081,294.45669 489.53446,294.41177 489.60473,294.28046 489.57248,294.15259 L 489.57169,294.15032 C 489.51607,294.02402 489.39667,293.93684 489.25915,293.9223 489.25743,293.92215 489.25576,293.92208 489.2541,293.92209 Z M 490.23157,293.94181 C 490.2294,293.94171 490.22722,293.94185 490.22512,293.94224 490.21321,293.94451 490.20518,293.95374 490.20176,293.96446 490.1983,293.97528 490.20097,293.98903 490.21098,293.99827 490.32311,294.10196 490.40334,294.23554 490.44246,294.38298 490.46054,294.47016 490.49618,294.55577 490.51352,294.63794 490.53117,294.72051 490.53041,294.79806 490.47706,294.87403 L 490.47587,294.87561 490.47242,294.88711 C 490.46741,294.89054 490.46359,294.89438 490.4613,294.89939 490.43251,294.80915 490.3826,294.72896 490.29499,294.69171 490.21098,294.6521 490.13104,294.60531 490.05429,294.55341 490.10925,294.48205 490.13528,294.39261 490.12495,294.30277 490.12456,294.29353 490.11998,294.28547 490.11347,294.28046 490.10687,294.27583 490.09961,294.27398 490.09234,294.27398 490.08464,294.27437 490.07737,294.27663 490.07118,294.28125 490.06501,294.28626 490.06009,294.29432 490.05933,294.30346 490.05697,294.3469 490.04467,294.38946 490.02405,294.4275 490.01517,294.44176 490.00093,294.44519 489.981,294.4506 489.96444,294.45483 489.94529,294.46289 489.93103,294.4794 489.83393,294.41984 489.72334,294.38534 489.60931,294.3818 489.5997,294.38112 489.59087,294.38416 489.58479,294.38986 489.57856,294.39566 489.57554,294.40293 489.57437,294.41059 489.57358,294.41797 489.57514,294.42603 489.57975,294.4329 489.58479,294.43979 489.59282,294.4448 489.60207,294.44638 489.71333,294.4625 489.79059,294.51891 489.8639,294.58643 489.93684,294.65446 490.00515,294.73349 490.09774,294.79039 490.13491,294.81339 490.1733,294.82341 490.20942,294.8353 490.24479,294.8472 490.27703,294.86056 490.30622,294.88868 490.36566,294.98844 490.39949,295.10177 490.40373,295.21805 V 295.21961 C 490.40831,295.24497 490.43134,295.25873 490.45287,295.25873 490.46359,295.25913 490.4744,295.25608 490.48314,295.24881 490.4916,295.24144 490.49777,295.22994 490.49777,295.21686 490.49966,295.13587 490.49542,295.03189 490.47126,294.93508 490.47544,294.93744 490.47929,294.94087 490.48433,294.94087 H 490.48815 L 490.50546,294.93005 490.52738,294.92553 490.53002,294.92358 C 490.58495,294.87826 490.6275,294.81988 490.65327,294.75353 V 294.75313 C 490.67245,294.69858 490.66322,294.64679 490.64707,294.59873 490.63058,294.55037 490.60755,294.50465 490.59685,294.45905 V 294.46092 C 490.58761,294.35075 490.54772,294.24556 490.48204,294.15681 L 490.48128,294.15603 490.48087,294.15533 C 490.40831,294.08163 490.33117,294.01282 490.24971,293.94912 490.24456,293.94456 490.23805,293.94209 490.23157,293.94181 Z M 488.39872,294.04545 C 488.39303,294.04516 488.3872,294.04663 488.38191,294.04899 488.25444,294.09656 488.14069,294.17529 488.05125,294.27781 L 488.05085,294.27819 V 294.2786 C 487.99987,294.34533 487.97795,294.4214 487.95838,294.49552 487.93843,294.56992 487.92072,294.64256 487.88001,294.70477 487.77755,294.86213 487.65122,294.99925 487.55097,295.16428 487.5076,295.23534 487.4734,295.31171 487.45003,295.39123 487.43388,295.44607 487.4339,295.50407 487.43085,295.56019 487.42771,295.61582 487.42242,295.66919 487.39821,295.71529 487.39323,295.72414 487.39363,295.73445 487.39705,295.74252 487.4005,295.75057 487.40709,295.75677 487.41397,295.76061 487.42124,295.76444 487.42967,295.7663 487.43812,295.76522 487.44695,295.76365 487.45583,295.75824 487.46075,295.74939 487.48228,295.71912 487.49654,295.68413 487.50144,295.64727 L 487.50113,295.64767 C 487.52494,295.52403 487.57062,295.40578 487.63657,295.29864 V 295.29834 C 487.7272,295.15052 487.8255,295.00692 487.93116,294.86902 L 487.93144,294.86862 V 294.86833 C 488.00366,294.75461 488.0532,294.6283 488.07741,294.4962 V 294.49591 C 488.14225,294.33579 488.26251,294.2037 488.41599,294.1238 L 488.41524,294.12419 C 488.4341,294.11534 488.44216,294.09499 488.43871,294.07818 488.43517,294.06128 488.41985,294.04545 488.39911,294.04545 Z M 489.26332,294.48196 C 489.26233,294.48195 489.2613,294.48197 489.26032,294.48205 489.25648,294.48244 489.25305,294.48323 489.2496,294.4847 489.18238,294.51232 489.11022,294.5254 489.0376,294.52236 H 489.0369 L 489.0357,294.52275 C 488.94589,294.53041 488.85792,294.55616 488.77811,294.59804 L 488.74471,294.61523 C 488.67823,294.62683 488.61416,294.66133 488.55076,294.68285 488.48668,294.70506 488.42488,294.7147 488.36077,294.67745 H 488.36117 C 488.34465,294.66752 488.32499,294.67402 488.31589,294.68669 488.3066,294.69937 488.3066,294.72011 488.32114,294.73239 V 294.73278 C 488.39565,294.79491 488.49475,294.81565 488.58802,294.79225 488.57772,294.8472 488.58419,294.90323 488.5661,294.94933 488.56306,294.95777 488.56306,294.96692 488.5661,294.97429 488.56923,294.98196 488.57492,294.98735 488.58151,294.9908 488.59489,294.99728 488.6126,294.99542 488.62411,294.98274 488.6599,294.94313 488.68711,294.89673 488.704,294.84641 488.73469,294.76119 488.8238,294.7266 488.90479,294.68709 488.99042,294.65907 489.07831,294.63834 489.16742,294.62526 L 489.16892,294.62487 489.17011,294.62448 C 489.2146,294.60649 489.25384,294.57838 489.2853,294.54269 489.29757,294.53238 489.30023,294.51625 489.29491,294.50358 489.29022,294.49169 489.27811,294.48213 489.26332,294.48196 Z M 490.06283,294.89897 C 490.06059,294.89895 490.05839,294.8991 490.05624,294.89939 490.04317,294.90165 490.03208,294.90971 490.02628,294.92131 490.02048,294.93281 490.0217,294.94933 490.03236,294.96083 L 490.03169,294.95964 C 490.20251,295.1973 490.2908,295.48411 490.28393,295.77711 V 295.77751 C 490.28393,295.79363 490.29007,295.807 490.30002,295.81584 490.31004,295.82429 490.32232,295.82813 490.33502,295.82852 490.35957,295.82931 490.38603,295.81702 490.3983,295.79324 L 490.3987,295.79245 V 295.79205 C 490.45629,295.64118 490.44521,295.47301 490.36874,295.33137 490.31958,295.16388 490.2202,295.01537 490.08427,294.90548 L 490.08387,294.90519 490.08309,294.9048 C 490.07678,294.90074 490.06959,294.89906 490.06283,294.89897 Z M 488.48873,295.07819 C 488.48078,295.07844 488.47234,295.08194 488.46632,295.08831 488.4563,295.09862 488.43172,295.11435 488.40833,295.13086 488.38454,295.14776 488.36117,295.16388 488.35232,295.18659 488.34573,295.20429 488.34268,295.22306 488.34309,295.24222 488.3435,295.25913 488.34154,295.27604 488.33886,295.29294 488.32352,295.29176 488.30779,295.29097 488.29393,295.29795 L 488.29235,295.29864 C 488.25552,295.32321 488.21402,295.34051 488.17065,295.34975 488.11006,295.36243 488.04703,295.34631 488.00064,295.30562 L 488.00131,295.30641 C 487.98641,295.29058 487.96378,295.29216 487.94992,295.30287 487.94341,295.30828 487.93804,295.31594 487.93648,295.32518 487.93498,295.33481 487.93804,295.34513 487.94491,295.35359 V 295.35398 H 487.94531 C 487.99444,295.40696 488.06092,295.44038 488.13224,295.44843 488.17226,295.45649 488.21297,295.46033 488.25365,295.45955 H 488.25552 L 488.26131,295.45728 488.24785,295.47645 C 488.20714,295.52176 488.17294,295.57287 488.14689,295.62811 V 295.6289 L 488.14649,295.62929 C 488.13303,295.66693 488.11042,295.68876 488.08125,295.70221 488.05204,295.71529 488.01597,295.71952 487.97795,295.71794 487.90114,295.71529 487.81741,295.68954 487.76403,295.67882 487.72417,295.67038 487.66115,295.67303 487.60471,295.69032 487.57631,295.69917 487.54986,295.71145 487.52873,295.72944 487.508,295.74714 487.49269,295.77053 487.48915,295.79932 487.48646,295.82429 487.49453,295.84768 487.50839,295.86734 487.52186,295.88729 487.54104,295.9046 487.56177,295.91993 487.60325,295.9502 487.65201,295.97329 487.67804,295.98824 V 295.98863 C 487.69348,295.99748 487.71108,295.99286 487.72189,295.98253 487.72757,295.97713 487.73181,295.96987 487.73221,295.9618 487.733,295.95335 487.72955,295.94411 487.72299,295.93723 487.70265,295.91374 487.68078,295.89152 487.6577,295.87118 L 487.6573,295.87079 C 487.64121,295.85771 487.63312,295.847 487.63088,295.8408 487.62853,295.83431 487.6293,295.83314 487.63314,295.82891 487.64081,295.82086 487.66961,295.81162 487.70499,295.80778 487.77487,295.80011 487.87,295.80631 487.88652,295.80857 L 487.88545,295.80817 C 487.99908,295.83314 488.11733,295.79432 488.19407,295.70684 488.23554,295.65996 488.2797,295.63036 488.32196,295.59547 488.36423,295.56019 488.40335,295.5191 488.43105,295.45001 H 488.43133 V 295.44961 C 488.45167,295.39084 488.45866,295.32822 488.45209,295.2668 V 295.26532 C 488.44519,295.23337 488.45138,295.21687 488.46437,295.19887 488.47704,295.18119 488.49817,295.16349 488.5197,295.13705 488.52895,295.12516 488.52819,295.10943 488.52199,295.09862 488.51588,295.08791 488.50505,295.07946 488.49209,295.07827 488.49099,295.07817 488.48983,295.07815 488.48873,295.07819 Z M 489.33825,295.41659 C 489.26759,295.41698 489.19732,295.4212 489.12711,295.42927 488.89093,295.44038 488.66598,295.53483 488.49237,295.69574 L 488.49209,295.69603 488.40796,295.78321 488.40335,295.78626 488.39303,295.79786 C 488.34493,295.84768 488.29274,295.89339 488.23713,295.93487 488.15959,295.99089 488.08929,296.07041 488.01676,296.10766 487.98058,296.12643 487.94452,296.13528 487.90618,296.12683 487.86737,296.11877 487.82508,296.0938 487.77789,296.04161 L 487.7775,296.04122 C 487.76525,296.02776 487.74531,296.02893 487.7338,296.03817 487.72228,296.0478 487.71728,296.06697 487.72796,296.08191 487.82321,296.21243 487.92536,296.25353 488.0248,296.23553 488.11849,296.21902 488.20793,296.15101 488.29274,296.06775 488.29814,296.08692 488.30398,296.10609 488.31308,296.12378 488.31773,296.13341 488.32539,296.14069 488.33421,296.14334 488.3427,296.14609 488.35192,296.14531 488.35959,296.14186 488.36725,296.13833 488.37413,296.13223 488.37769,296.12417 488.38151,296.11572 488.38191,296.10501 488.37769,296.09537 V 296.09576 C 488.37111,296.08004 488.37111,296.06235 488.37729,296.04663 L 488.37837,296.04505 C 488.38604,296.05508 488.39721,296.06156 488.40912,296.06078 488.41599,296.06039 488.42287,296.05813 488.42869,296.05272 488.4341,296.04741 488.43752,296.03935 488.43752,296.0309 488.43712,295.99865 488.44295,295.96711 488.45328,295.93684 488.46329,295.91295 488.47056,295.88809 488.47625,295.86273 488.54313,295.78095 488.60453,295.70301 488.6571,295.65042 488.78193,295.56786 488.92861,295.52442 489.07826,295.52598 H 489.07986 C 489.23653,295.50869 489.39508,295.50986 489.55135,295.5302 489.70105,295.5536 489.84464,295.6058 489.97445,295.68374 L 490.03474,295.72718 490.04439,295.74094 490.04547,295.74173 C 490.05774,295.75323 490.0658,295.75942 490.07044,295.76482 490.07462,295.77053 490.07737,295.77633 490.07847,295.79205 L 490.07887,295.79324 V 295.79402 C 490.08773,295.83088 490.08653,295.86921 490.07503,295.90529 L 490.07542,295.90341 C 490.07044,295.91374 490.07044,295.92524 490.07462,295.93408 490.07887,295.94293 490.08694,295.94912 490.09539,295.95216 490.1123,295.95826 490.13491,295.95335 490.14569,295.93339 L 490.14608,295.93261 490.15072,295.92072 C 490.17412,295.98902 490.17912,296.06275 490.16331,296.13381 V 296.13528 C 490.16184,296.15523 490.17599,296.17027 490.1918,296.17449 490.19986,296.17676 490.20863,296.17675 490.21669,296.17292 490.22484,296.16909 490.23171,296.16183 490.23474,296.15179 490.26159,296.08083 490.27007,296.00397 490.26275,295.92838 490.27282,295.92524 490.28204,295.91954 490.28657,295.91069 490.29315,295.89802 490.29236,295.8807 490.28165,295.86803 L 490.28232,295.86882 C 490.23055,295.79707 490.18337,295.72256 490.13991,295.6458 L 490.13909,295.64463 490.13802,295.64344 C 490.07278,295.57208 489.98744,295.52215 489.89341,295.49945 489.71373,295.4442 489.52637,295.4162 489.33825,295.41659 Z"
         id="path830"
         inkscape:connector-curvature="0"
         sodipodi:nodetypes="ccccccccccccccccccccccccccccccccccccccccccccccccccccccccccccccccccccccccccscccccccccccccccccccccccccccccccccccccccccsccccccccccccccccccccccccccccccccccscccccccccccccccccccccccccccccccccccccccccccccccccccccccccccccccccccccccccccccccccccccccccccccccccccccccccccccccccccccccccccccccc" />
    </g>
  </g>
</svg>
