<?xml version="1.0" encoding="UTF-8" standalone="no"?>
<!-- Created with Inkscape (http://www.inkscape.org/) -->

<svg
   xmlns:dc="http://purl.org/dc/elements/1.1/"
   xmlns:cc="http://creativecommons.org/ns#"
   xmlns:rdf="http://www.w3.org/1999/02/22-rdf-syntax-ns#"
   xmlns:svg="http://www.w3.org/2000/svg"
   xmlns="http://www.w3.org/2000/svg"
   xmlns:sodipodi="http://sodipodi.sourceforge.net/DTD/sodipodi-0.dtd"
   xmlns:inkscape="http://www.inkscape.org/namespaces/inkscape"
   version="1.1"
   id="svg823"
   xml:space="preserve"
   width="1024"
   height="1024"
   viewBox="0 0 1024 1024"
   sodipodi:docname="LCGM-Cravat-Web.svg"
   inkscape:version="0.92.2 5c3e80d, 2017-08-06"><metadata
     id="metadata829"><rdf:RDF><cc:Work
         rdf:about=""><dc:format>image/svg+xml</dc:format><dc:type
           rdf:resource="http://purl.org/dc/dcmitype/StillImage" /><dc:title></dc:title></cc:Work></rdf:RDF></metadata><defs
     id="defs827" /><sodipodi:namedview
     pagecolor="#ffffff"
     bordercolor="#666666"
     borderopacity="1"
     objecttolerance="10"
     gridtolerance="10"
     guidetolerance="10"
     inkscape:pageopacity="0"
     inkscape:pageshadow="2"
     inkscape:window-width="1920"
     inkscape:window-height="1151"
     id="namedview825"
     showgrid="false"
     fit-margin-top="0"
     fit-margin-left="0"
     fit-margin-right="0"
     fit-margin-bottom="0"
     inkscape:showpageshadow="false"
     inkscape:zoom="0.35355339"
     inkscape:cx="1012.4138"
     inkscape:cy="206.45113"
     inkscape:window-x="0"
     inkscape:window-y="0"
     inkscape:window-maximized="0"
     inkscape:current-layer="g831" /><g
     id="g831"
     inkscape:groupmode="layer"
     inkscape:label="Logo-Cravat"
     transform="matrix(1.3333333,0,0,-1.3333333,3187.0787,1306.0178)"><path
       style="fill:#000000;fill-opacity:1;fill-rule:nonzero;stroke:none;stroke-width:9.77444077"
       d="M -2005.869,979.88837 C -2015.839,979.88837 -2023.5506,977.10246 -2029.0145,971.5603 -2034.4686,966.06716 -2037.186,958.19876 -2037.1469,947.9258 -2037.1469,940.25285 -2035.5835,933.94839 -2032.485,929.03181 -2029.3572,924.10551 -2025.6912,920.62573 -2021.4491,918.68061 -2017.1386,916.7355 -2011.6361,915.73879 -2004.9211,915.77788 -1999.3497,915.77788 -1994.8045,916.5798 -1991.2075,918.18277 -1987.6202,919.82489 -1984.6096,922.18983 -1982.2051,925.32748 -1979.7615,928.49439 -1978.0021,932.42359 -1976.8585,937.16422 L -1993.6505,942.19828 C -1994.4911,938.26897 -1995.8697,935.28768 -1997.7366,933.22524 -1999.6133,931.16281 -2002.3595,930.13645 -2006.0249,930.13645 -2009.8076,930.13645 -2012.7502,931.39773 -2014.8126,933.91956 -2016.9044,936.5097 -2017.9403,941.21107 -2017.9794,948.08248 -2017.9794,953.65391 -2017.1001,957.70016 -2015.3406,960.30012 -2013.0534,963.80912 -2009.7296,965.56877 -2005.3799,965.56877 -2003.4642,965.56877 -2001.7542,965.18771 -2000.1805,964.38622 -1998.6557,963.58468 -1997.3165,962.47059 -1996.251,960.98488 -1995.606,960.10522 -1994.9898,958.73651 -1994.3838,956.8598 L -1977.5034,960.64291 C -1979.6831,967.17229 -1983.0068,972.01997 -1987.4737,975.1478 -1991.9406,978.32443 -1998.0495,979.88837 -2005.869,979.88837 Z M -1926.8425,971.14042 -1943.4882,911.42858 -1926.9109,906.80489 -1921.115,927.57569 C -1920.0007,931.505 -1918.632,934.06571 -1916.9899,935.24842 -1915.3087,936.39205 -1913.4711,936.7053 -1911.4477,936.16778 -1909.6199,935.63014 -1908.3592,934.68147 -1907.675,933.26422 -1906.981,931.89578 -1907.02,929.83335 -1907.7824,927.11602 L -1914.3902,903.33515 -1897.7437,898.71146 -1890.1099,926.16805 C -1888.5069,931.85675 -1888.654,936.43146 -1890.4917,939.87211 -1892.2803,943.34202 -1895.4565,945.71689 -1899.9624,946.97783 -1903.0121,947.80864 -1905.7592,948.04371 -1908.281,947.66254 -1910.8028,947.28137 -1913.4714,946.20534 -1916.3744,944.53396 L -1910.2652,966.5271 Z M -2151.3378,930.71541 C -2155.3677,930.69119 -2160.0718,929.38562 -2165.515,926.7741 -2172.6503,923.37254 -2177.3122,918.7203 -2179.5213,912.87519 -2181.7009,907.03986 -2181.242,900.9308 -2178.2218,894.5872 -2176.0909,890.15939 -2173.2559,886.758 -2169.6687,884.43161 -2166.0423,882.10532 -2162.3382,880.92223 -2158.5262,880.88314 -2154.7435,880.844 -2150.1592,882.14371 -2144.8126,884.69486 -2138.6352,887.63696 -2134.315,890.80425 -2131.8322,894.12752 -2129.3886,897.48999 -2127.981,901.77132 -2127.5998,906.96152 L -2143.5226,901.0384 C -2143.9039,899.35714 -2144.4314,898.0666 -2145.0472,897.18694 -2146.0344,895.76964 -2147.2951,894.70457 -2148.82,893.98121 -2151.2342,892.82787 -2153.6,892.75919 -2155.9654,893.7856 -2157.6075,894.50891 -2159.171,896.04321 -2160.6567,898.36949 L -2129.545,913.25609 -2130.3856,915.01521 C -2132.9367,920.36187 -2135.8787,924.29129 -2139.2019,926.7741 -2142.5644,929.25674 -2146.3469,930.55682 -2150.5401,930.70346 -2150.8028,930.71323 -2151.0691,930.71703 -2151.3378,930.71541 Z M -2156.5961,918.83252 C -2155.8506,918.82057 -2155.1122,918.67323 -2154.4011,918.4166 -2152.456,917.76175 -2150.6183,916.01268 -2148.8589,913.14876 L -2164.1757,905.818 C -2165.0555,908.36905 -2165.3195,910.4703 -2164.9774,912.15145 -2164.4398,914.81993 -2162.9541,916.7361 -2160.4714,917.91876 -2159.3962,918.41725 -2158.3699,918.72008 -2157.3436,918.79832 -2157.0944,918.82519 -2156.8445,918.83648 -2156.5961,918.83252 Z M -1836.077,916.77513 C -1837.6507,916.73605 -1839.1759,916.53995 -1840.7007,916.19776 -1846.7706,914.75125 -1851.5792,910.96923 -1855.1762,904.93839 -1857.6491,900.69632 -1858.9102,896.42449 -1858.832,892.14337 -1858.7636,887.87193 -1857.6489,884.12802 -1855.5865,880.9611 -1853.4948,877.78436 -1849.8981,874.65686 -1844.7861,871.63659 -1838.8725,868.16663 -1833.8677,866.33916 -1829.7037,866.14366 -1825.5398,865.98731 -1821.2296,867.16926 -1816.6845,869.76933 L -1830.5054,879.70059 C -1832.1084,879.08478 -1833.4473,878.78205 -1834.5128,878.78205 -1836.2722,878.86023 -1837.8362,879.31964 -1839.2828,880.16027 -1841.6189,881.52871 -1842.9874,883.47333 -1843.4468,885.99517 -1843.7595,887.75455 -1843.3396,889.89538 -1842.2252,892.40739 L -1812.5204,874.89162 -1811.5335,876.56327 C -1808.5132,881.68506 -1806.9104,886.29827 -1806.715,890.46217 -1806.5292,894.62612 -1807.5159,898.4867 -1809.7346,902.07382 -1811.9534,905.62196 -1815.805,909.06299 -1821.3471,912.30813 -1826.4591,915.31864 -1831.3853,916.81422 -1836.077,916.77513 Z M -1829.9694,904.37692 C -1829.816,904.3766 -1829.6629,904.37079 -1829.5089,904.36102 -1828.2969,904.2437 -1827.1042,903.86274 -1825.9215,903.17847 -1823.8591,901.95666 -1822.5977,900.39272 -1822.109,898.40847 -1821.5714,896.42427 -1821.992,893.94147 -1823.4093,890.88205 L -1837.9929,899.51311 C -1836.3899,901.69281 -1834.7869,903.06125 -1833.2133,903.71605 -1832.11,904.15227 -1831.0437,904.37948 -1829.9694,904.37692 Z M -2257.6387,885.31122 -2272.2224,872.8971 -2232.059,825.70671 -2194.7212,857.51265 -2204.6127,869.12436 -2227.3677,849.76115 Z M -1751.1958,877.20823 C -1751.6552,877.19846 -1752.1047,877.15872 -1752.5445,877.10009 -1754.2551,876.83624 -1756.0539,876.03513 -1757.8426,874.69601 -1759.6411,873.35688 -1761.1267,872.02775 -1762.3876,870.68863 L -1763.7658,869.23169 -1768.4571,873.63034 -1777.0881,864.46246 -1772.4358,860.03438 -1794.5354,836.51677 -1781.9758,824.71895 -1759.8753,848.23662 -1753.8742,842.62599 -1745.2432,851.78433 -1751.2443,857.3949 C -1749.8661,858.85129 -1748.9084,859.7702 -1748.3805,860.1124 -1747.4226,860.75742 -1746.5037,861.03126 -1745.6631,860.91399 -1744.7932,860.83576 -1743.7965,860.25909 -1742.692,859.23279 -1741.7341,858.35307 -1740.6685,857.09196 -1739.4075,855.41075 L -1730.8942,861.71564 C -1734.5987,866.14345 -1737.5309,869.42779 -1739.7105,871.49022 -1742.4572,874.0512 -1744.8621,875.72215 -1746.8854,876.41614 -1747.9215,876.79731 -1748.8694,877.02251 -1749.7882,877.13983 -1750.2671,877.19852 -1750.7363,877.21801 -1751.1958,877.20823 Z M -1991.3705,856.76269 C -1991.9493,856.75775 -1992.5337,856.74097 -1993.1233,856.711 -1997.4338,856.48619 -2002.0566,855.60663 -2007.0612,853.84725 -2018.8589,851.17883 -2030.0409,846.21339 -2039.9717,839.22466 L -2040.079,839.14593 -2040.1578,839.03855 C -2051.9556,826.36118 -2066.1579,816.16634 -2081.973,809.0212 L -2081.8942,809.06018 C -2082.8814,808.679 -2083.6443,807.91671 -2083.9571,807.037 -2084.2602,806.15728 -2084.1426,805.2484 -2083.8005,804.47623 -2083.0772,802.95144 -2081.2001,801.76889 -2079.1768,802.3847 -2067.9948,805.35611 -2057.1549,809.48055 -2046.8038,814.6708 V 814.71054 C -2038.6715,819.06994 -2032.4453,825.98022 -2024.8115,830.25167 L -2024.7336,830.32958 C -2015.0373,837.12286 -2004.3049,842.35264 -1992.9666,845.87147 -1986.5546,847.27899 -1978.6862,844.18966 -1971.0132,839.64459 -1963.3403,835.09941 -1955.9316,829.33259 -1950.0571,825.82359 -1949.0211,825.10029 -1947.8382,824.86613 -1946.8021,825.10072 -1945.7758,825.32554 -1944.9349,825.9414 -1944.3289,826.74295 -1943.7521,827.54443 -1943.4099,828.53154 -1943.5272,829.6067 -1943.6348,830.67215 -1944.2115,831.73738 -1945.2379,832.47046 -1960.5208,845.22519 -1973.428,856.91541 -1991.3705,856.76269 Z M -2009.1272,817.51702 C -2011.6054,817.50921 -2013.6112,815.83701 -2014.5001,813.83017 -2014.9595,812.72569 -2015.1548,811.50416 -2014.842,810.3215 -2014.539,809.09964 -2013.7369,807.95597 -2012.5151,807.23266 L -2012.4761,807.19368 H -2012.4371 C -2005.8394,803.71394 -1999.6914,799.5204 -1994.0418,794.63325 V 794.59427 C -1986.0952,788.02585 -1987.3955,775.61206 -1996.5151,770.80303 -1998.3918,769.77673 -1998.8115,767.59757 -1998.1175,766.07277 -1997.8145,765.31037 -1997.2086,764.57697 -1996.368,764.23494 -1995.5664,763.85366 -1994.4913,763.89324 -1993.5432,764.35264 -1981.247,768.81959 -1974.2584,781.8777 -1977.4644,794.59427 L -1977.5424,794.8193 C -1983.0747,807.37946 -1994.951,816.04896 -2008.6254,817.49558 -2008.7946,817.51024 -2008.962,817.51757 -2009.1272,817.51702 Z M -1911.9217,815.5559 C -1912.1367,815.5654 -1912.3517,815.55047 -1912.5619,815.51138 -1913.7446,815.28656 -1914.5459,814.36835 -1914.8881,813.3029 -1915.2302,812.22774 -1914.9665,810.8593 -1913.9695,809.94055 -1902.8169,799.62849 -1894.8407,786.34503 -1890.9505,771.6834 -1889.152,763.01346 -1885.6041,754.49934 -1883.8837,746.3279 -1882.1243,738.11736 -1882.2027,730.40565 -1887.5102,722.84997 L -1887.6271,722.69334 -1887.9698,721.54972 C -1888.4683,721.20763 -1888.8488,720.82668 -1889.0737,720.32818 -1891.9376,729.30112 -1896.903,737.27679 -1905.612,740.98128 -1913.9692,744.92037 -1921.9166,749.57293 -1929.5504,754.73387 -1924.0865,761.8301 -1921.4955,770.72528 -1922.5218,779.65913 -1922.5609,780.57793 -1923.0203,781.37942 -1923.6654,781.87791 -1924.3203,782.33737 -1925.044,782.52288 -1925.7673,782.52288 -1926.5297,782.48379 -1927.2534,782.25936 -1927.8692,781.80001 -1928.485,781.30151 -1928.9736,780.4997 -1929.0518,779.59072 -1929.2863,775.27041 -1930.5079,771.03805 -1932.5605,767.25538 -1933.4402,765.83808 -1934.8572,765.49621 -1936.8414,764.95857 -1938.4835,764.53831 -1940.3897,763.73617 -1941.807,762.09406 -1951.4642,768.0174 -1962.4607,771.44849 -1973.7991,771.80029 -1974.757,771.86875 -1975.6361,771.56559 -1976.2421,770.99864 -1976.8579,770.42202 -1977.1611,769.69893 -1977.2784,768.93653 -1977.3566,768.20345 -1977.2002,767.40196 -1976.7408,766.71774 -1976.2423,766.03358 -1975.4408,765.53486 -1974.522,765.37851 -1963.4573,763.77548 -1955.775,758.16523 -1948.4833,751.45018 -1941.2307,744.68627 -1934.4372,736.8271 -1925.2297,731.16772 -1921.535,728.88047 -1917.7134,727.88419 -1914.1262,726.70148 -1910.6073,725.51877 -1907.4009,724.18936 -1904.4979,721.39385 -1898.5843,711.47279 -1895.2223,700.20235 -1894.802,688.63918 V 688.48331 C -1894.3426,685.96148 -1892.0549,684.59287 -1889.9143,684.59287 -1888.8488,684.55378 -1887.7741,684.85645 -1886.9042,685.57976 -1886.0635,686.31284 -1885.4481,687.45685 -1885.4481,688.75688 -1885.2623,696.811 -1885.6823,707.15189 -1888.0867,716.77972 -1887.6665,716.54513 -1887.285,716.20316 -1886.7865,716.20316 H -1886.4056 L -1884.6854,717.27832 -1882.5056,717.72844 -1882.2415,717.92329 C -1876.7776,722.42933 -1872.5458,728.23534 -1869.9849,734.83307 V 734.87287 C -1868.0789,740.29766 -1868.9974,745.44818 -1870.6004,750.22784 -1872.2425,755.03692 -1874.5301,759.5827 -1875.5955,764.118 V 763.93195 C -1876.5143,774.88908 -1880.4822,785.34804 -1887.0116,794.17433 L -1887.0895,794.25229 -1887.1292,794.3207 C -1894.3427,801.65151 -1902.015,808.4936 -1910.118,814.82748 -1910.6312,815.282 -1911.2766,815.5275 -1911.9217,815.5559 Z M -2285.1264,811.75134 C -2285.3284,811.75476 -2285.5329,811.75053 -2285.7404,811.73864 -2287.9982,811.62132 -2290.0604,810.47769 -2291.4289,808.67922 -2336.6748,750.11073 -2362.7921,679.01146 -2366.1936,605.09713 V 605.05816 C -2367.1808,580.92506 -2365.7347,556.76238 -2361.8347,532.89321 -2361.1896,528.69997 -2357.2206,525.86584 -2353.0175,526.52073 -2348.8146,527.20493 -2345.9511,531.17302 -2346.6451,535.37603 -2350.3496,558.20912 -2351.7573,581.34539 -2350.8091,604.45216 -2347.5249,675.19957 -2322.59,743.20061 -2279.2502,799.28636 -2275.2542,804.31439 -2278.8631,811.64466 -2285.1264,811.75134 Z M -1727.2972,811.6217 C -1733.8656,811.80743 -1737.6482,804.21227 -1733.5233,799.10025 -1683.6639,734.60848 -1658.2699,654.54653 -1661.818,573.1059 -1662.4729,560.38935 -1663.8029,547.75089 -1665.8262,535.19074 -1666.745,530.90953 -1663.8805,526.67711 -1659.5308,525.98313 -1655.2105,525.25982 -1651.1643,528.34837 -1650.6756,532.74688 -1648.535,545.87395 -1647.1177,559.0892 -1646.4726,572.37267 V 572.41163 C -1642.7289,657.51767 -1669.2662,741.13834 -1721.3836,808.52335 -1722.8009,810.40006 -1724.9708,811.54352 -1727.2972,811.6217 Z M -2094.1906,805.24846 C -2094.7576,805.27777 -2095.3344,805.13152 -2095.8623,804.89693 -2108.5397,800.16618 -2119.8487,792.33666 -2128.7434,782.14193 L -2128.7824,782.103 V 782.06326 C -2133.8553,775.42633 -2136.0353,767.86147 -2137.9804,760.49157 -2139.9647,753.0923 -2141.7235,745.86903 -2145.7701,739.68179 -2155.9648,724.03295 -2168.5254,710.39703 -2178.4953,693.98579 -2182.8059,686.91883 -2186.2077,679.32438 -2188.534,671.41685 -2190.137,665.96274 -2190.1365,660.19565 -2190.4395,654.61445 -2190.7522,649.08211 -2191.2804,643.77447 -2193.6849,639.19024 -2194.1834,638.31055 -2194.144,637.28466 -2193.8019,636.48315 -2193.4597,635.68165 -2192.8049,635.06546 -2192.1207,634.68426 -2191.3974,634.30306 -2190.5572,634.11787 -2189.7165,634.22538 -2188.8369,634.38178 -2187.957,634.91952 -2187.4683,635.79922 -2185.3278,638.80975 -2183.9099,642.28936 -2183.4213,645.95477 L -2183.4506,645.91503 C -2181.0852,658.21128 -2176.5407,669.97034 -2169.982,680.62447 V 680.6539 C -2160.97,695.35467 -2151.195,709.63507 -2140.6875,723.34862 L -2140.6581,723.38755 V 723.41703 C -2133.4739,734.72607 -2128.5482,747.28639 -2126.1437,760.42322 V 760.45259 C -2119.6925,776.37516 -2107.7381,789.5114 -2092.4705,797.45802 L -2092.5484,797.41904 C -2090.6717,798.29876 -2089.8706,800.322 -2090.2127,801.99343 -2090.5646,803.67464 -2092.0892,805.24846 -2094.1517,805.24846 Z M -2008.2103,761.8396 C -2008.3083,761.84074 -2008.4076,761.83813 -2008.5077,761.8308 -2008.8889,761.79171 -2009.2313,761.71343 -2009.5734,761.56679 -2016.2591,758.82019 -2023.4334,757.51961 -2030.6567,757.82272 H -2030.7251 L -2030.8428,757.78374 C -2039.7766,757.02134 -2048.5247,754.4602 -2056.4615,750.29624 L -2059.785,748.58642 C -2066.3925,747.43303 -2072.7649,744.00226 -2079.0694,741.86165 -2085.4423,739.65264 -2091.5904,738.69474 -2097.9634,742.39929 H -2097.9244 C -2099.5665,743.38645 -2101.5214,742.74083 -2102.4304,741.47988 -2103.3492,740.21899 -2103.3497,738.15678 -2101.9031,736.93498 V 736.896 C -2094.4941,730.71852 -2084.641,728.65609 -2075.3651,730.98238 -2076.3914,725.5185 -2075.7464,719.94674 -2077.5449,715.36258 -2077.8479,714.52195 -2077.8479,713.61281 -2077.5449,712.87972 -2077.2321,712.11733 -2076.6649,711.5804 -2076.01,711.23831 -2074.6807,710.59318 -2072.9212,710.77826 -2071.7776,712.03915 -2068.2197,715.97823 -2065.5125,720.59236 -2063.8313,725.59684 -2060.7817,734.07127 -2051.9162,737.51165 -2043.8621,741.44096 -2035.3486,744.2267 -2026.6101,746.28913 -2017.7448,747.58917 L -2017.5984,747.62815 -2017.4807,747.66713 C -2013.0529,749.45583 -2009.1527,752.2514 -2006.0249,755.79954 -2004.8031,756.82579 -2004.5396,758.42908 -2005.0674,759.68998 -2005.5347,760.87204 -2006.7405,761.82206 -2008.2103,761.8396 Z M -1928.701,720.36955 C -1928.9249,720.37249 -1929.1446,720.3575 -1929.3548,720.32818 -1930.6548,720.10337 -1931.7587,719.30177 -1932.3354,718.14838 -1932.9121,717.00475 -1932.7949,715.36258 -1931.7294,714.21896 L -1931.7978,714.33666 C -1914.8098,690.70205 -1906.0325,662.18045 -1906.7167,633.04282 V 633.00306 C -1906.7167,631.40005 -1906.1014,630.07104 -1905.1142,629.19134 -1904.1172,628.35074 -1902.895,627.96914 -1901.6341,627.93005 -1899.1905,627.85184 -1896.5614,629.07414 -1895.3396,631.43957 L -1895.3006,631.5175 V 631.55647 C -1889.5728,646.56022 -1890.6767,663.28449 -1898.2813,677.36945 -1903.1685,694.0251 -1913.0509,708.79438 -1926.569,719.7222 L -1926.6079,719.75162 -1926.6858,719.7906 C -1927.3163,720.19382 -1928.0294,720.36087 -1928.701,720.36955 Z M -2085.2399,702.54758 C -2086.0294,702.52277 -2086.8672,702.1745 -2087.4658,701.54159 -2088.4628,700.51528 -2090.9068,698.95129 -2093.2331,697.30917 -2095.5986,695.62802 -2097.9243,694.02488 -2098.804,691.76695 -2099.4589,690.00757 -2099.7624,688.14112 -2099.7233,686.2351 -2099.6842,684.55389 -2099.8793,682.87269 -2100.1432,681.19148 -2101.668,681.3088 -2103.232,681.38687 -2104.6102,680.69288 L -2104.7669,680.62447 C -2108.4323,678.18087 -2112.5572,676.46074 -2116.8677,675.54193 -2122.8985,674.28104 -2129.1639,675.88358 -2133.7774,679.93021 L -2133.7091,679.85225 C -2135.1948,681.42596 -2137.4428,681.26917 -2138.821,680.20378 -2139.4661,679.6662 -2140.0039,678.9038 -2140.1603,677.98499 -2140.3069,677.02709 -2140.0039,676.00079 -2139.3196,675.16021 V 675.12123 H -2139.2799 C -2134.3927,669.8528 -2127.7852,666.52985 -2120.6889,665.72831 -2116.7107,664.92683 -2112.6642,664.54549 -2108.6176,664.62367 H -2108.4323 L -2107.8557,664.84876 -2109.1941,662.94246 C -2113.2408,658.43648 -2116.6426,653.3535 -2119.2328,647.86025 V 647.78229 L -2119.2718,647.74336 C -2120.6109,643.99972 -2122.859,641.82958 -2125.762,640.49051 -2128.665,639.1905 -2132.2525,638.77062 -2136.0352,638.92701 -2143.6691,639.19092 -2151.9971,641.75124 -2157.3047,642.81669 -2161.2731,643.65726 -2167.5382,643.39336 -2173.1488,641.67306 -2175.9736,640.79334 -2178.6031,639.57214 -2180.7046,637.78341 -2182.767,636.02402 -2184.2917,633.69748 -2184.6435,630.83357 -2184.9074,628.35086 -2184.106,626.02471 -2182.7277,624.06982 -2181.3886,622.08562 -2179.4825,620.36495 -2177.4201,618.84014 -2173.2953,615.82961 -2168.4472,613.53269 -2165.8569,612.04696 V 612.008 C -2164.3224,611.1283 -2162.5725,611.58767 -2161.4973,612.61399 -2160.9304,613.15158 -2160.5105,613.87462 -2160.4714,614.67612 -2160.3932,615.51672 -2160.735,616.43576 -2161.3899,617.11998 -2163.4132,619.45607 -2165.5831,621.66478 -2167.8801,623.68809 L -2167.919,623.72706 C -2169.5221,625.02706 -2170.3242,626.09273 -2170.549,626.70852 -2170.7836,627.35363 -2170.7052,627.47078 -2170.3239,627.89108 -2169.5615,628.69259 -2166.6973,629.61176 -2163.1785,629.99297 -2156.2288,630.75538 -2146.7672,630.13905 -2145.1251,629.91424 L -2145.2325,629.954 C -2133.9332,627.4713 -2122.1746,631.33158 -2114.5407,640.03084 -2110.4159,644.69323 -2106.0274,647.63581 -2101.8244,651.10572 -2097.6214,654.61477 -2093.731,658.70022 -2090.9746,665.57169 H -2090.9459 V 665.61061 C -2088.9226,671.45572 -2088.2281,677.68221 -2088.883,683.79122 V 683.93835 C -2089.5672,687.11504 -2088.9517,688.75672 -2087.6615,690.54542 -2086.4006,692.3048 -2084.2989,694.0643 -2082.1583,696.69368 -2081.2394,697.87634 -2081.3174,699.4405 -2081.9332,700.51572 -2082.5392,701.58111 -2083.6149,702.42158 -2084.9051,702.53884 -2085.0151,702.54862 -2085.1271,702.55117 -2085.2399,702.54758 Z M -2000.757,668.89506 C -2007.7849,668.85597 -2014.7731,668.43609 -2021.7521,667.63461 -2045.2401,666.53007 -2067.614,657.13623 -2084.8756,641.13548 L -2084.9051,641.10605 -2093.2721,632.43603 -2093.731,632.13304 -2094.7577,630.9799 C -2099.5373,626.02425 -2104.7275,621.47939 -2110.2598,617.35458 -2117.9719,611.78314 -2124.9606,603.87575 -2132.1742,600.17124 -2135.7712,598.30432 -2139.3583,597.42438 -2143.1703,598.26499 -2147.0313,599.06649 -2151.2347,601.54912 -2155.9264,606.73935 L -2155.9654,606.77832 C -2157.1872,608.11741 -2159.1711,608.00012 -2160.3147,607.08132 -2161.4583,606.12342 -2161.9567,604.21772 -2160.8913,602.732 -2151.4199,589.75155 -2141.2643,585.66539 -2131.3726,587.45412 -2122.0575,589.09622 -2113.1633,595.86067 -2104.7279,604.13962 -2104.1903,602.23361 -2103.613,600.32738 -2102.704,598.56798 -2102.2446,597.61009 -2101.4825,596.88666 -2100.6029,596.62276 -2099.7622,596.34907 -2098.8435,596.42777 -2098.0811,596.76988 -2097.3186,597.12176 -2096.634,597.7275 -2096.2822,598.52901 -2095.901,599.36961 -2095.8619,600.43487 -2096.2822,601.39277 V 601.3538 C -2096.9371,602.91771 -2096.9369,604.67681 -2096.3212,606.24072 L -2096.2138,606.39738 C -2095.4514,605.4004 -2094.3371,604.7549 -2093.1544,604.8331 -2092.4702,604.8722 -2091.7859,605.09713 -2091.2091,605.63472 -2090.6716,606.16254 -2090.3296,606.96441 -2090.3296,607.80501 -2090.3687,611.01103 -2089.7924,614.14842 -2088.7661,617.15894 -2087.7691,619.53413 -2087.0458,622.00688 -2086.4789,624.52869 -2079.8323,632.66102 -2073.7233,640.41212 -2068.4939,645.64146 -2056.0804,653.85199 -2041.4969,658.1722 -2026.6104,658.01579 H -2026.4537 C -2010.8733,659.73614 -1995.1069,659.61925 -1979.5656,657.5959 -1964.6791,655.26962 -1950.3992,650.07947 -1937.4872,642.32835 L -1931.4948,638.00768 -1930.5374,636.63982 -1930.43,636.56109 C -1929.2082,635.41748 -1928.4065,634.80195 -1927.9471,634.26435 -1927.5269,633.69744 -1927.253,633.12038 -1927.1455,631.55647 L -1927.1065,631.43957 V 631.36163 C -1926.2268,627.69622 -1926.3439,623.88349 -1927.4874,620.29627 L -1927.4485,620.48236 C -1927.947,619.45605 -1927.9467,618.31222 -1927.5264,617.43252 -1927.1062,616.55281 -1926.3049,615.93742 -1925.4643,615.63442 -1923.7831,615.02839 -1921.5349,615.5167 -1920.4597,617.50091 L -1920.4207,617.57964 -1919.9611,618.76221 C -1917.6347,611.96897 -1917.1364,604.63763 -1918.7101,597.57072 V 597.42438 C -1918.8568,595.44017 -1917.4494,593.94469 -1915.8757,593.52439 -1915.0742,593.29958 -1914.204,593.29985 -1913.4025,593.68106 -1912.5912,594.06227 -1911.9074,594.78517 -1911.6044,595.78216 -1908.936,602.8393 -1908.0952,610.483 -1908.8185,617.99955 -1907.8216,618.31232 -1906.9023,618.87898 -1906.4527,619.75868 -1905.7978,621.01958 -1905.8763,622.74052 -1906.9417,624.00143 L -1906.8734,623.92269 C -1912.0245,631.05804 -1916.716,638.46728 -1921.0363,646.10114 L -1921.115,646.21802 -1921.2223,646.33573 C -1927.7126,653.43195 -1936.197,658.39739 -1945.5512,660.65532 -1963.4188,666.14857 -1982.0488,668.93415 -2000.757,668.89506 Z M -2028.2129,528.72998 C -2035.2309,528.76907 -2042.2592,525.56254 -2053.1381,513.11967 -2063.7532,501.01892 -2068.4938,498.98618 -2074.1825,498.98618 -2081.5915,498.98618 -2085.8632,505.906 -2084.2212,513.15864 -2083.6151,512.08346 -2082.2367,510.7939 -2080.3991,510.97961 -2078.5713,511.20443 -2076.2842,512.77809 -2077.2323,516.0232 -2078.1511,519.26831 -2082.0409,519.79545 -2086.9672,517.66463 -2097.5431,512.96312 -2099.4983,496.62023 -2090.7893,486.20067 -2085.3254,479.63225 -2075.1309,476.16279 -2066.2362,476.7688 -2055.4745,477.53121 -2053.4116,478.67486 -2035.7687,486.0448 -2021.8694,491.81172 -2019.7288,492.57434 -2006.2889,492.69164 -1992.8881,492.57434 -1990.7577,491.81172 -1976.8585,486.0448 -1959.2156,478.67486 -1957.1534,477.53121 -1946.3918,476.7688 -1937.4872,476.16279 -1927.2922,479.63225 -1921.7989,486.20067 -1913.0899,496.62023 -1915.0745,512.96312 -1925.6504,517.66463 -1930.5376,519.79545 -1934.4369,519.26831 -1935.3948,516.0232 -1936.3429,512.77809 -1934.0171,511.20443 -1932.1796,510.97961 -1930.3517,510.7939 -1928.973,512.08346 -1928.367,513.15864 -1926.7249,505.906 -1930.9967,498.98618 -1938.4057,498.98618 -1944.1335,498.98618 -1948.8352,501.01892 -1959.4405,513.11967 -1970.3683,525.56254 -1977.3865,528.76907 -1984.4143,528.72998 -1991.403,528.70065 -1993.4652,527.7033 -1996.593,526.86269 -1999.7306,526.0221 -2002.8971,525.52334 -2006.2595,525.56243 H -2006.3676 C -2009.7692,525.52334 -2012.8965,526.0221 -2016.0341,526.86269 -2019.162,527.7033 -2021.185,528.70065 -2028.2129,528.72998 Z M -1684.612,485.66307 C -1687.2511,483.49315 -1689.0405,481.19621 -1689.9984,478.8699 -1690.9562,476.6511 -1691.1808,474.52083 -1690.6823,472.52684 -1690.2228,470.54263 -1688.8152,468.25497 -1686.4888,465.58654 L -1693.282,468.41133 -1699.4692,453.55415 -1658.0063,436.29287 -1651.3595,452.25468 -1665.2592,458.06013 C -1671.9058,460.80675 -1676.0985,463.52425 -1677.8188,466.15357 -1679.0406,468.03027 -1679.236,469.97522 -1678.3954,472.07672 -1677.936,473.14214 -1676.9397,474.4812 -1675.3758,476.0451 Z M -2327.1149,483.75522 C -2327.4769,483.74973 -2327.8388,483.73819 -2328.2004,483.71864 -2332.5501,483.45473 -2337.0562,482.30086 -2341.6795,480.20913 -2347.5246,477.53093 -2352.1773,474.02168 -2355.6571,469.66229 -2359.0879,465.31266 -2361.0328,460.50377 -2361.414,455.23534 -2361.7659,449.96692 -2360.427,444.00439 -2357.4066,437.28934 -2354.9239,431.86453 -2352.1776,427.43668 -2349.1279,424.04495 -2346.0294,420.64345 -2341.6013,417.16394 -2335.7269,413.61582 L -2311.6716,424.49507 -2323.8901,451.45305 -2335.61,446.14544 -2330.3413,434.46455 -2335.649,432.06045 C -2338.0534,433.74166 -2339.9203,435.34475 -2341.2985,436.83047 -2342.6376,438.35528 -2343.7812,440.11424 -2344.6609,442.05935 -2346.5278,446.14507 -2346.6838,449.96731 -2345.0808,453.43724 -2343.5071,456.91694 -2339.6561,460.04456 -2333.5471,462.79118 -2327.8192,465.39117 -2323.0885,466.15398 -2319.4231,465.12768 -2315.7186,464.05248 -2313.0012,461.56917 -2311.2907,457.75713 -2310.0982,455.19623 -2309.7174,452.83099 -2310.0985,450.69039 -2310.4895,448.51068 -2311.5935,446.56601 -2313.3822,444.92391 L -2302.7678,429.46073 C -2299.6009,432.13892 -2297.2742,435.04187 -2295.8569,438.1697 -2294.3712,441.25842 -2293.7947,444.62021 -2294.0684,448.24653 -2294.3323,451.83375 -2295.8959,456.7605 -2298.7207,462.98681 -2301.6237,469.47705 -2304.869,474.16839 -2308.4269,477.1887 -2313.0013,481.0105 -2318.1623,483.18051 -2323.8901,483.63991 -2324.9457,483.72788 -2326.029,483.77171 -2327.1149,483.75522 Z M -2016.7188,470.54265 -2026.7957,465.92851 -2019.084,455.42143 C -2014.92,448.93121 -2010.9512,431.52286 -2006.2595,431.52286 -2001.5971,431.52286 -1997.6291,448.93121 -1993.4652,455.42143 L -1985.7138,465.92851 -1995.7914,470.54265 C -1998.0493,470.54265 -1999.0368,470.50304 -2003.0053,469.01733 -2004.1586,468.59702 -2004.8422,467.75683 -2006.2595,467.75683 -2007.667,467.75683 -2008.3516,468.59702 -2009.505,469.01733 -2013.4734,470.50304 -2014.461,470.54265 -2016.7188,470.54265 Z M -2078.6901,425.72058 V 412.89133 C -2075.3903,402.97306 -2059.1679,395.42213 -2042.5944,391.29982 -2041.0547,393.88451 -2038.7244,395.66743 -2035.9651,395.66743 -2032.2675,395.66743 -2029.2152,392.68347 -2028.0474,388.58 -2024.2625,388.11382 -2020.6199,387.80621 -2017.4091,387.80621 V 389.2528 C -2017.4091,396.54454 -2022.6645,402.04639 -2030.1517,402.3103 -2046.6803,402.95541 -2061.0863,408.38861 -2070.5577,417.05853 -2076.9306,422.89387 -2078.6901,425.72058 -2078.6901,425.72058 Z M -1933.9347,425.72058 C -1933.9347,425.72058 -1935.6655,422.89387 -1942.0385,417.05853 -1951.5099,408.38861 -1965.9445,402.95541 -1982.473,402.3103 -1989.9212,402.04639 -1995.2307,396.54454 -1995.2307,389.2528 V 387.80621 C -1992.0077,387.80621 -1988.3367,388.12463 -1984.5344,388.59432 -1983.3677,392.69105 -1980.3227,395.66743 -1976.6596,395.66743 -1973.8764,395.66743 -1971.5309,393.88572 -1969.9874,391.29982 -1953.416,395.42385 -1937.2071,402.97904 -1933.9347,412.89133 Z M -1705.514,422.83456 C -1705.766,422.83441 -1706.0156,422.83075 -1706.2624,422.82342 -1709.3218,422.66703 -1712.1856,421.82632 -1714.9713,420.3406 -1718.6368,418.31729 -1722.2635,414.61311 -1725.8116,409.2665 -1730.2003,402.65897 -1731.8031,396.28605 -1730.6985,390.13793 -1729.555,384.02891 -1726.0753,378.98555 -1720.24,375.13442 -1716.1152,372.37803 -1711.912,370.93115 -1707.6406,370.77476 -1703.3594,370.62815 -1699.5866,371.50744 -1696.3024,373.41346 -1693.0182,375.35857 -1689.7341,378.79938 -1686.4499,383.72569 -1682.6672,389.44375 -1680.5653,394.33069 -1680.145,398.4946 -1679.7638,402.61942 -1680.7613,407.00818 -1683.0485,411.67059 L -1693.7417,398.41666 C -1693.2041,396.77456 -1692.9795,395.44567 -1693.0577,394.33138 -1693.1652,392.62085 -1693.7024,391.05659 -1694.6602,389.6393 -1696.1459,387.4205 -1698.1307,386.13003 -1700.6915,385.81725 -1702.4411,385.59244 -1704.5813,386.09108 -1707.064,387.39108 L -1687.9744,416.09864 -1689.5777,417.1643 C -1694.5431,420.44852 -1699.0495,422.32519 -1703.2133,422.74548 -1703.983,422.80413 -1704.758,422.83501 -1705.514,422.83456 Z M -1710.3874,407.92727 C -1708.7062,407.84907 -1706.7611,407.28245 -1704.5032,406.09974 L -1713.8969,391.96546 C -1715.9985,393.68576 -1717.2983,395.36707 -1717.8359,396.97007 -1718.7449,399.53098 -1718.4414,401.93569 -1716.9166,404.22291 -1715.6166,406.20713 -1713.975,407.3894 -1711.9517,407.7706 -1711.4532,407.8879 -1710.925,407.92727 -1710.3874,407.92727 Z M -2291.9243,401.98026 C -2292.1818,401.98622 -2292.4373,401.98447 -2292.6902,401.9747 -2294.7134,401.89651 -2297.0497,401.21243 -2299.679,399.95154 L -2290.9406,385.89597 C -2288.9857,386.55087 -2287.4218,386.65824 -2286.2,386.23794 -2284.597,385.67102 -2282.9548,384.29262 -2281.1954,382.0445 -2279.866,380.32419 -2279.2504,378.83835 -2279.4068,377.64588 -2279.5241,376.42406 -2280.4328,375.17312 -2282.0749,373.87312 -2284.0591,375.05583 -2285.8575,376.23889 -2287.4605,377.42161 -2289.0244,378.60432 -2292.3086,381.35062 -2297.3131,385.67091 -2301.4379,389.25814 -2305.0251,391.16385 -2307.9673,391.39843 -2310.9387,391.62324 -2313.7634,390.66524 -2316.4416,388.61261 -2319.3055,386.35471 -2320.9089,383.37355 -2321.1337,379.66903 -2321.4074,375.9743 -2319.8727,371.99621 -2316.5983,367.76388 -2314.1156,364.58719 -2311.437,362.18257 -2308.6122,360.54047 -2306.4716,359.35776 -2303.8821,358.5177 -2300.7836,358.0974 -2301.7024,357.14928 -2302.3573,356.38678 -2302.6994,355.84919 -2303.0806,355.35069 -2303.5006,354.47126 -2303.9893,353.24945 L -2294.1074,340.5029 C -2293.1885,342.36983 -2292.348,343.74823 -2291.5856,344.69635 -2290.784,345.65425 -2289.5233,346.75874 -2287.8812,348.05874 L -2272.2224,360.23747 C -2270.551,361.53747 -2269.0554,363.25841 -2267.7554,365.32082 -2266.4261,367.42232 -2265.7323,369.44519 -2265.6248,371.3903 -2265.4684,374.13692 -2266.1136,376.96205 -2267.609,379.74777 -2269.0557,382.57258 -2271.3522,386.05235 -2274.5191,390.09896 -2276.5033,392.65987 -2278.527,394.82922 -2280.5894,396.74502 -2282.6518,398.61193 -2284.5188,399.91215 -2286.2,400.63546 -2288.2099,401.50783 -2290.1221,401.93857 -2291.9243,401.98026 Z M -2078.5755,398.95983 C -2078.0285,387.09357 -2073.6003,383.90394 -2067.3504,379.40182 -2059.5992,373.83039 -2037.6423,367.0756 -2017.4091,366.58689 V 376.99614 C -2021.1369,376.99614 -2025.3835,377.36221 -2029.7652,377.89797 -2031.3133,375.79459 -2033.4887,374.43379 -2035.9651,374.43379 -2039.2236,374.43379 -2041.9773,376.83501 -2043.3818,380.24639 -2058.8499,383.81849 -2073.7853,390.2404 -2078.5755,398.95983 Z M -1934.0492,398.95983 C -1938.8138,390.24303 -1953.7437,383.81915 -1969.2143,380.24639 -1970.6215,376.83571 -1973.3743,374.43379 -1976.6596,374.43379 -1979.1195,374.43379 -1981.2897,375.80361 -1982.8309,377.91309 -1987.2262,377.3749 -1991.4926,376.99614 -1995.2307,376.99614 V 366.58689 C -1974.9879,367.0756 -1952.9826,373.83039 -1945.2314,379.40182 -1938.9816,383.90394 -1934.5919,387.09357 -1934.0492,398.95983 Z M -2164.5567,382.08346 -2179.1403,361.5767 -2169.7084,354.85192 C -2168.6039,354.05041 -2167.1865,353.36638 -2165.5444,352.76036 -2164.3226,352.30097 -2162.9926,352.14418 -2161.5363,352.33967 -2160.0505,352.52538 -2158.6339,353.06336 -2157.3047,353.90396 -2155.9264,354.74456 -2154.4797,356.26931 -2152.906,358.47834 -2151.9188,359.85654 -2151.1564,361.31331 -2150.6188,362.79903 -2150.0421,364.28474 -2149.8169,365.77966 -2149.8951,367.22628 -2149.9734,368.712 -2150.3939,370.09016 -2151.1954,371.42927 -2151.9578,372.72927 -2153.297,374.05868 -2155.1248,375.35868 Z M -2302.4346,376.63986 C -2302.1284,376.64933 -2301.8094,376.62988 -2301.4771,376.58101 -2300.1771,376.39529 -2298.115,375.20244 -2295.2119,373.03253 -2293.1496,371.39042 -2291.0477,369.89483 -2288.9071,368.5655 L -2291.0869,366.88431 C -2292.7681,365.54522 -2294.3711,364.78323 -2295.8959,364.48022 -2297.3523,364.20654 -2298.9558,364.44085 -2300.7152,365.16415 -2302.4258,365.88746 -2303.8818,367.00173 -2305.0645,368.52654 -2306.2082,369.97316 -2306.7453,371.35172 -2306.628,372.61263 -2306.5107,373.87353 -2305.9441,374.93878 -2304.8689,375.77938 -2304.1578,376.32186 -2303.3532,376.61146 -2302.4346,376.63986 Z M -2161.4973,372.91562 -2159.9338,371.811 C -2158.2917,370.62828 -2157.4115,369.40597 -2157.2649,368.06688 -2157.1085,366.76687 -2157.8322,365.04688 -2159.3668,362.87696 -2160.5495,361.23485 -2161.5363,360.15929 -2162.3769,359.63147 -2163.2175,359.13298 -2164.0193,358.93774 -2164.7817,359.01594 -2165.5442,359.13324 -2166.6191,359.67108 -2167.919,360.6192 L -2169.4834,361.73337 Z M -1847.0851,372.03605 C -1848.8468,372.01521 -1850.935,371.20486 -1853.3384,369.63117 -1855.7038,368.06726 -1857.2679,366.42505 -1858.001,364.62655 -1858.6852,362.83783 -1858.6852,360.89305 -1858.001,358.83064 L -1851.8138,361.4598 C -1852.3123,362.6034 -1852.4983,363.52164 -1852.3419,364.20585 -1852.1952,364.89984 -1851.7751,365.46741 -1851.0909,365.92681 -1850.3969,366.34711 -1849.7513,366.50297 -1849.0964,366.38568 -1848.4904,366.22929 -1847.9532,365.84823 -1847.5329,365.20312 -1847.1126,364.55801 -1847.0052,363.78582 -1847.1909,362.98432 -1847.3864,362.14372 -1847.8456,361.49862 -1848.6081,361.00013 -1848.7938,360.89261 -1849.0577,360.73661 -1849.4487,360.58023 L -1847.0049,356.19115 C -1846.3499,356.95355 -1845.783,357.45244 -1845.3236,357.75544 -1844.483,358.33213 -1843.6035,358.51786 -1842.7629,358.29304 -1841.9223,358.09756 -1841.1597,357.491 -1840.5146,356.53311 -1839.8989,355.54589 -1839.6738,354.62712 -1839.8204,353.70832 -1839.9768,352.78953 -1840.4362,352.06676 -1841.1986,351.56826 -1841.961,351.07954 -1842.724,350.88381 -1843.5255,351.0402 -1844.2879,351.18682 -1845.1672,351.76347 -1846.1642,352.78979 L -1851.5012,348.21541 C -1850.2892,347.14022 -1849.0285,346.41692 -1847.7285,345.99662 -1846.4676,345.61541 -1845.1286,345.53684 -1843.7601,345.81052 -1842.3428,346.07444 -1840.6615,346.83681 -1838.7555,348.09771 -1836.7713,349.35862 -1835.3931,350.69754 -1834.5525,352.10506 -1833.751,353.48326 -1833.4087,354.96934 -1833.4869,356.49414 -1833.5944,358.06783 -1834.0143,359.43635 -1834.8158,360.65816 -1835.4707,361.65516 -1836.1946,362.37873 -1837.0743,362.79903 -1837.9149,363.25843 -1838.8333,363.48309 -1839.7814,363.44398 -1840.3972,363.44398 -1841.1991,363.2579 -1842.1179,362.9549 -1841.463,364.17671 -1841.1597,365.2813 -1841.1207,366.34672 -1841.1207,367.42191 -1841.3844,368.40938 -1842.0002,369.32817 -1842.9874,370.85299 -1844.4834,371.77149 -1846.3503,371.9963 -1846.5886,372.02561 -1846.8335,372.03903 -1847.0851,372.03605 Z M -1754.6759,369.13253 -1766.2486,357.91131 -1761.6249,353.18027 C -1764.9482,353.74718 -1767.8512,353.66977 -1770.3339,352.94646 -1772.7775,352.22315 -1775.2215,350.65902 -1777.7434,348.21541 -1781.6727,344.4327 -1783.5784,340.04393 -1783.4709,335.03942 -1783.3536,330.07401 -1780.8713,325.07952 -1776.0232,320.03591 -1771.7811,315.64718 -1767.392,313.04642 -1762.9252,312.16674 -1756.6598,310.98402 -1751.3129,312.46983 -1747.0024,316.63375 -1744.7933,318.77436 -1743.2592,321.25728 -1742.311,324.1212 -1741.7344,325.94902 -1741.509,328.16803 -1741.6947,330.76804 L -1736.9645,325.88032 C -1734.6675,323.50514 -1733.5235,321.4137 -1733.4844,319.61521 -1733.4453,317.81671 -1734.3255,316.0279 -1736.0849,314.3076 -1737.463,312.9685 -1738.9094,312.20638 -1740.4342,311.94247 -1741.4704,311.74699 -1742.6922,312.08892 -1744.0606,312.89043 L -1757.3925,302.66647 C -1756.7767,301.93338 -1756.2396,301.36649 -1755.8585,300.98527 -1752.6915,297.70107 -1748.9867,296.24441 -1744.6762,296.62562 -1740.395,297.04592 -1734.9803,300.40841 -1728.4901,306.67382 -1725.6653,309.42044 -1723.407,312.08853 -1721.6865,314.68853 -1719.9663,317.35694 -1718.9795,319.91819 -1718.6375,322.44 -1718.2954,324.9618 -1718.5983,327.55224 -1719.5171,330.23044 -1720.4261,332.85976 -1721.8434,335.2349 -1723.7885,337.25822 L -1725.2056,338.62687 Z M -1877.8922,355.42848 -1883.0821,352.90669 C -1883.0821,351.14729 -1883.4245,349.5154 -1884.1478,347.98081 -1884.8809,346.45599 -1886.1316,344.81339 -1887.93,343.09309 L -1885.4481,337.90318 C -1884.2262,339.04679 -1883.2387,340.12194 -1882.5056,341.03096 -1881.7823,341.98886 -1881.0982,343.13245 -1880.414,344.39336 L -1873.1516,329.31111 -1866.7783,332.37051 Z M -2133.4379,352.65778 C -2133.6798,352.66236 -2133.9202,352.65733 -2134.1584,352.64267 -2134.8133,352.60357 -2135.4194,352.52538 -2136.0352,352.33967 -2138.4788,351.60659 -2140.3457,350.00398 -2141.6848,347.48218 -2142.6036,345.69345 -2143.0236,343.93383 -2142.9063,342.21353 -2142.789,340.503 -2142.2615,339.00742 -2141.3818,337.74651 -2140.463,336.48561 -2138.9385,335.30333 -2136.7979,334.19882 -2134.3152,332.89882 -2132.2521,332.2536 -2130.5709,332.2536 -2128.8897,332.2536 -2127.1404,332.85947 -2125.381,333.97376 L -2131.1475,337.74651 C -2131.7926,337.4435 -2132.3303,337.32651 -2132.7897,337.29718 -2133.4739,337.29718 -2134.129,337.4435 -2134.7349,337.74651 -2135.6928,338.24501 -2136.2993,339.00795 -2136.5339,340.04404 -2136.7196,340.72825 -2136.6016,341.60779 -2136.1911,342.67319 L -2123.7778,336.14404 -2123.3968,336.83752 C -2122.2923,338.96835 -2121.7157,340.88463 -2121.7157,342.56583 -2121.7157,344.27636 -2122.214,345.81062 -2123.2012,347.21815 -2124.1591,348.63543 -2125.8009,349.92576 -2128.0881,351.14756 -2129.9611,352.12256 -2131.7444,352.6257 -2133.4379,352.65778 Z M -2240.4554,350.42387 -2269.9741,316.59479 -2256.9548,305.25666 -2247.0633,316.59479 C -2242.3325,321.9805 -2238.432,325.10825 -2235.3824,325.90975 -2233.2418,326.48644 -2231.2971,326.06658 -2229.6159,324.58086 -2228.6971,323.81845 -2227.7881,322.44002 -2226.7911,320.4558 L -2214.7293,326.18332 C -2215.9511,329.35024 -2217.5144,331.79406 -2219.4596,333.43616 -2221.2581,335.03917 -2223.2034,335.91936 -2225.2658,336.10508 -2227.2891,336.30056 -2229.9185,335.68415 -2233.1636,334.31573 L -2228.3157,339.8484 Z M -2131.2652,347.75575 C -2130.7667,347.75575 -2130.2678,347.59975 -2129.7693,347.33584 -2128.9287,346.91554 -2128.3625,346.29948 -2128.1279,345.49798 -2127.864,344.69647 -2128.0201,343.67007 -2128.5088,342.40916 L -2134.6181,345.61489 C -2134.012,346.53368 -2133.3568,347.101 -2132.7507,347.41378 -2132.2523,347.6386 -2131.7539,347.75575 -2131.2652,347.75575 Z M -1759.7592,345.49242 C -1759.4841,345.49435 -1759.2037,345.48345 -1758.9178,345.45901 -1756.6209,345.2733 -1754.3338,344.01258 -1752.0857,341.68626 -1749.7887,339.32084 -1748.6058,337.06235 -1748.5277,334.85333 -1748.4592,332.71273 -1749.1819,330.87555 -1750.7067,329.38984 -1752.3488,327.82593 -1754.1769,327.13156 -1756.2394,327.28795 -1758.3409,327.44433 -1760.5204,328.70575 -1762.7685,331.03207 -1765.3294,333.66139 -1766.7079,336.03653 -1766.8546,338.05984 -1767.0109,340.15158 -1766.3263,341.95001 -1764.7232,343.47482 -1763.3463,344.81758 -1761.6853,345.47892 -1759.7592,345.49242 Z M -1910.7177,340.9252 C -1911.7957,340.89914 -1913.0265,340.66076 -1914.4292,340.19037 -1917.7916,339.08586 -1919.9612,337.32677 -1920.9973,335.00045 -1922.0236,332.63504 -1921.7992,329.19414 -1920.2744,324.65879 -1919.6586,322.82119 -1918.935,321.17873 -1918.1336,319.73211 -1917.2929,318.31482 -1916.4525,317.28877 -1915.5728,316.59479 -1914.3901,315.60757 -1913.051,315.03104 -1911.6044,314.80623 -1910.148,314.57164 -1908.3979,314.76697 -1906.4137,315.45119 -1902.8167,316.63389 -1900.647,318.47161 -1899.8456,320.99341 -1899.0441,323.46634 -1899.3469,326.90683 -1900.7935,331.21737 -1901.4484,333.17225 -1902.289,334.92184 -1903.3153,336.56395 -1903.8529,337.44364 -1904.4295,338.12812 -1905.0355,338.70481 -1905.6512,339.32059 -1906.3746,339.80917 -1907.2543,340.19037 -1908.0949,340.61068 -1909.1215,340.84541 -1910.2652,340.92361 -1910.413,340.92849 -1910.5637,340.92891 -1910.7177,340.9252 Z M -2104.9912,339.70207 -2113.7789,316.10649 -2107.171,313.66263 -2104.1116,321.79504 C -2103.7304,320.87624 -2103.1927,320.11343 -2102.4694,319.45854 -2101.7852,318.77433 -2100.9053,318.27625 -2099.9181,317.89505 -2097.8166,317.13264 -2095.8328,317.24992 -2093.917,318.19804 -2091.9719,319.19503 -2090.4861,321.13972 -2089.45,323.96453 -2088.5019,326.52543 -2088.3062,328.93018 -2088.922,331.14898 -2089.4889,333.358 -2090.9459,334.88276 -2093.2331,335.72335 -2094.3767,336.18276 -2095.5592,336.30043 -2096.6735,336.14404 -2097.5434,336.07562 -2098.5794,335.61584 -2099.8012,334.88276 L -2098.8827,337.40455 Z M -1912.4108,335.85537 C -1912.1493,335.87003 -1911.8926,335.84052 -1911.6434,335.76232 -1911.1448,335.61571 -1910.6856,335.30295 -1910.2262,334.85333 -1909.3465,333.97363 -1908.3586,331.9118 -1907.2933,328.74488 -1906.5602,326.60428 -1906.1792,324.96167 -1906.0717,323.85717 -1905.9544,322.74288 -1906.0716,321.90255 -1906.4137,321.25744 -1906.7558,320.60255 -1907.2548,320.19177 -1907.939,319.95718 -1908.936,319.61508 -1909.923,319.91794 -1910.8417,320.83674 -1911.7214,321.79463 -1912.6694,323.77946 -1913.7055,326.82908 -1914.6927,329.81029 -1915.1133,331.98941 -1915.0057,333.24053 -1914.8885,334.50143 -1914.2723,335.34228 -1913.2069,335.68438 -1912.938,335.78213 -1912.6722,335.8407 -1912.4108,335.85537 Z M -2098.0914,331.91958 C -2097.7927,331.90676 -2097.477,331.83329 -2097.1617,331.71599 -2096.3603,331.45209 -2095.8623,330.87553 -2095.5593,329.99583 -2095.2563,329.15523 -2095.3734,328.05038 -2095.9012,326.68195 -2096.4388,325.18647 -2097.0936,324.19953 -2097.856,323.77923 -2098.6184,323.31983 -2099.3418,323.28072 -2100.1042,323.54463 -2100.9839,323.85741 -2101.5904,324.46302 -2101.9031,325.34273 -2102.2452,326.18332 -2102.1272,327.28795 -2101.6287,328.66615 -2101.1009,330.11277 -2100.4071,331.07051 -2099.6056,331.5299 -2099.2244,331.75471 -2098.8044,331.87253 -2098.3841,331.91163 -2098.2888,331.92141 -2098.191,331.92387 -2098.0914,331.91958 Z M -1943.8573,331.84722 C -1944.0821,331.84783 -1944.3144,331.84268 -1944.5539,331.8329 -1945.5509,331.7938 -1946.6166,331.63781 -1947.8384,331.413 -1950.1256,330.9536 -1951.8844,330.30838 -1953.1062,329.46778 -1954.2889,328.66627 -1955.1295,327.63032 -1955.628,326.36942 -1956.1656,325.14761 -1956.3513,323.58361 -1956.234,321.5994 L -1949.2452,322.36206 C -1949.3234,323.81845 -1949.1773,324.84473 -1948.718,325.48985 -1948.2585,326.18383 -1947.6134,326.56464 -1946.7337,326.75035 -1945.8931,326.90674 -1945.1309,326.78985 -1944.476,326.33044 -1943.7918,325.91015 -1943.41,325.34327 -1943.2537,324.58086 -1943.107,323.88687 -1943.254,323.08486 -1943.6743,322.21494 -1944.0947,321.33524 -1945.1695,319.9576 -1946.8801,318.09068 -1949.6658,314.99219 -1951.5036,312.44046 -1952.3833,310.41715 -1953.224,308.38406 -1953.5266,306.33214 -1953.3702,304.26973 L -1932.7951,308.27708 -1933.8997,313.88769 -1944.5929,311.7858 C -1944.0944,312.50911 -1943.6348,313.1253 -1943.2537,313.58469 -1942.8724,314.08319 -1942.0712,314.91411 -1940.8885,316.13591 -1938.8652,318.23741 -1937.5651,320.07458 -1936.9591,321.5994 -1936.3433,323.12421 -1936.1966,324.65852 -1936.4605,326.18332 -1936.7635,327.59084 -1937.3795,328.77378 -1938.3667,329.77077 -1939.3637,330.76777 -1940.5855,331.41312 -1942.0321,331.67703 -1942.5746,331.79432 -1943.1828,331.84538 -1943.8573,331.84722 Z M -2071.7776,328.39258 -2074.4076,317.09342 C -2074.9451,314.76709 -2074.8273,312.92916 -2074.0258,311.56074 -2073.2243,310.18254 -2071.8464,309.3035 -2069.9795,308.84411 -2068.572,308.5411 -2067.3503,308.50203 -2066.2752,308.77571 -2065.1706,309.07872 -2064.0271,309.68431 -2062.8444,310.64221 L -2063.4893,307.77845 -2057.1161,306.29289 -2053.0308,324.04326 -2059.824,325.60676 -2061.8082,317.09342 C -2062.1893,315.45131 -2062.6874,314.42516 -2063.3717,313.92666 -2064.0265,313.38907 -2064.75,313.24231 -2065.5515,313.42803 -2066.3139,313.62351 -2066.8517,313.96574 -2067.1547,314.53265 -2067.4577,315.10934 -2067.4575,315.94994 -2067.2327,317.05444 L -2064.9359,326.82908 Z M -2035.7687,328.39258 -2036.3453,323.66153 -2029.3962,322.82093 -2028.8188,327.55198 Z M -2036.6093,321.48249 -2038.7891,303.42913 -2031.8393,302.54877 -2029.6595,320.6419 Z M -2005.4006,319.54045 C -2007.1133,319.52361 -2008.5043,319.32946 -2009.5734,318.97024 -2010.8343,318.54994 -2011.7918,317.93414 -2012.5151,317.05444 -2013.1993,316.21384 -2013.5904,315.18744 -2013.6197,313.96563 -2013.6197,312.89044 -2013.3167,311.90283 -2012.7107,311.02314 -2012.0558,310.18253 -2011.2549,309.53786 -2010.336,309.15665 -2009.3879,308.77545 -2007.7065,308.38408 -2005.302,307.89535 -2003.6599,307.58257 -2002.7018,307.3192 -2002.3205,307.13349 -2001.7927,306.85979 -2001.5196,306.47818 -2001.5587,305.94058 -2001.5587,305.53006 -2001.7539,305.13896 -2002.1742,304.83596 -2002.6629,304.45475 -2003.3956,304.2696 -2004.3437,304.3087 -2005.1843,304.3087 -2005.9081,304.49385 -2006.4066,304.83596 -2006.9051,305.21716 -2007.2863,305.83335 -2007.5502,306.63485 L -2014.5001,306.09725 C -2014.1189,304.33785 -2013.2777,302.96907 -2011.8701,302.01117 -2010.4528,301.02395 -2008.1268,300.52587 -2004.7644,300.44767 -2002.4381,300.40859 -2000.5612,300.67261 -1999.1928,301.2493 -1997.8145,301.826 -1996.7882,302.58824 -1996.1333,303.57546 -1995.4883,304.57245 -1995.1465,305.55966 -1995.1465,306.63485 -1995.1074,307.66117 -1995.3713,308.65788 -1995.987,309.53758 -1996.5539,310.41728 -1997.4338,311.06223 -1998.5382,311.56074 -1999.6916,312.04946 -2001.4017,312.44109 -2003.6987,312.7441 -2005.2235,312.96891 -2006.2208,313.16412 -2006.6802,313.42803 -2007.1298,313.66261 -2007.3641,314.00486 -2007.3641,314.46426 -2007.3641,314.84546 -2007.1688,315.18728 -2006.7875,315.45119 -2006.4454,315.71509 -2005.8396,315.87122 -2005.0674,315.83212 -2004.2659,315.83212 -2003.6208,315.64709 -2003.0832,315.26589 -2002.702,314.9922 -2002.399,314.57164 -2002.2426,313.96563 L -1995.6053,314.49369 C -1996.0647,315.68617 -1996.5925,316.63413 -1997.2865,317.35744 -1997.9707,318.09053 -1998.8114,318.57927 -1999.8377,318.97024 -2000.8738,319.31235 -2002.4768,319.49817 -2004.6467,319.53727 -2004.9045,319.54216 -2005.1559,319.54286 -2005.4006,319.54045 Z M -1814.5595,315.65557 C -1817.2779,315.64172 -1820.0424,314.76673 -1822.9106,313.00733 -1825.882,311.17951 -1828.1014,309.03924 -1829.5089,306.67382 -1830.9262,304.30841 -1831.8839,301.21008 -1832.3433,297.38828 L -1836.194,303.65339 -1849.8296,295.218 -1826.2634,256.99983 -1811.6409,266.04123 -1822.9504,284.36896 C -1825.0812,287.88776 -1825.9993,290.63392 -1825.7354,292.65723 -1825.4617,294.68055 -1824.4354,296.2056 -1822.676,297.31989 -1821.0729,298.30711 -1819.5096,298.58092 -1817.9847,298.12152 -1816.4892,297.66212 -1815.0033,296.24431 -1813.5567,293.8398 L -1800.5763,272.84474 -1785.8758,281.9251 -1800.8403,306.21416 C -1803.9291,311.24799 -1807.3699,314.22914 -1811.1526,315.22613 -1812.1007,315.49003 -1813.0585,315.60773 -1814.0164,315.64682 -1814.1971,315.65354 -1814.3783,315.65649 -1814.5595,315.65557 Z M -2161.654,314.11196 -2172.3861,295.52099 C -2172.953,297.92551 -2173.9504,300.06632 -2175.397,301.93323 -2176.8534,303.80992 -2178.7203,305.41266 -2181.0465,306.75176 -2185.7872,309.49838 -2190.7131,310.02641 -2195.786,308.42341 -2200.8296,306.78131 -2205.2186,302.69569 -2208.9231,296.28365 -2212.2464,290.51673 -2213.6539,284.82787 -2213.1945,279.17825 -2212.7448,273.52862 -2209.8415,269.17936 -2204.534,266.11996 -2201.8949,264.63425 -2199.1881,263.79339 -2196.4024,263.6761 -2194.3009,263.5979 -2191.5537,264.21383 -2188.1912,265.55293 L -2191.5147,259.78565 -2177.5768,251.77095 -2146.6107,305.41332 Z M -2185.8985,293.78095 C -2185.7823,293.77821 -2185.6674,293.77163 -2185.5525,293.76186 -2184.6044,293.72276 -2183.6853,293.45886 -2182.8446,292.92126 -2180.8604,291.81675 -2179.6783,290.09637 -2179.258,287.84825 -2178.7986,285.59036 -2179.4828,282.96134 -2181.2422,279.90194 -2183.1482,276.54931 -2185.2101,274.48671 -2187.3506,273.7243 -2189.4521,272.95212 -2191.4759,273.14785 -2193.3819,274.25236 -2195.1805,275.24936 -2196.2454,276.85222 -2196.6266,279.03192 -2196.9687,281.20184 -2196.2062,283.87971 -2194.3784,287.04662 -2192.4236,290.44813 -2190.4395,292.54035 -2188.4553,293.31253 -2187.5572,293.64608 -2186.7114,293.80006 -2185.8985,293.78095 Z M -1881.9624,280.2288 C -1883.068,280.25308 -1884.1964,280.18514 -1885.3693,279.97987 -1888.546,279.52048 -1892.5536,278.45536 -1897.4017,276.77415 -1900.4513,275.70874 -1903.2082,274.48684 -1905.6518,273.14773 -1908.0954,271.76954 -1909.9231,270.43971 -1911.1057,269.10062 -1912.7869,267.2337 -1913.9304,265.31822 -1914.5071,263.3731 -1915.0349,261.42799 -1915.1522,259.0234 -1914.8101,256.0813 L -1898.702,259.86439 C -1898.702,261.92679 -1898.2819,263.45141 -1897.4805,264.47773 -1896.4444,265.77773 -1894.6164,266.92132 -1891.9382,267.84012 -1889.8367,268.56343 -1888.2727,268.68071 -1887.1682,268.14312 -1886.0637,267.6544 -1885.1835,266.39368 -1884.4993,264.37037 -1886.2098,262.87488 -1887.9302,261.57422 -1889.5723,260.43062 -1891.2144,259.3261 -1894.8408,257.10777 -1900.5295,253.75514 -1905.2603,250.99875 -1908.2029,248.21256 -1909.3856,245.50504 -1910.5389,242.75842 -1910.568,239.77782 -1909.4635,236.5718 -1908.2417,233.1312 -1905.9543,230.68751 -1902.5136,229.27999 -1899.0828,227.8236 -1894.8409,227.97946 -1889.7679,229.73886 -1885.9461,231.06818 -1882.8187,232.82794 -1880.375,234.96854 -1878.5765,236.61064 -1876.9729,238.78092 -1875.5263,241.57641 -1874.9105,240.42303 -1874.4124,239.58244 -1874.0312,239.05462 -1873.65,238.55613 -1872.9661,237.8714 -1871.969,236.9917 L -1856.7405,242.29931 C -1858.1871,243.74593 -1859.2524,245.00654 -1859.9073,246.04263 -1860.5523,247.06895 -1861.2072,248.5945 -1861.8914,250.61781 L -1868.3816,269.32568 C -1869.0658,271.34899 -1870.219,273.26488 -1871.783,275.17089 -1873.3078,277.11601 -1875.0283,278.45494 -1876.817,279.17825 -1878.117,279.67675 -1879.4558,280.01912 -1880.8633,280.17551 -1881.2274,280.20239 -1881.5939,280.2207 -1881.9624,280.2288 Z M -1944.4362,278.83628 -1969.4887,276.65645 -1975.9002,238.29196 -1988.8026,275.01423 -2013.8933,272.8837 -2008.5864,211.13835 -1992.9666,212.47758 -1997.0129,259.55105 -1980.9437,213.50427 -1966.8102,214.7258 -1958.7558,262.8355 -1954.7484,215.76203 -1939.1684,217.10127 Z M -2117.8737,275.71883 C -2118.2914,275.72529 -2118.7054,275.72193 -2119.1159,275.7085 -2122.4001,275.5912 -2125.4591,274.86802 -2128.2448,273.45073 -2133.8162,270.66502 -2137.677,265.8948 -2139.7785,259.20909 -2141.2251,254.47825 -2141.4596,250.08964 -2140.4235,245.92573 -2139.3581,241.76182 -2137.4815,238.36053 -2134.7349,235.7312 -2131.9493,233.1312 -2127.7463,230.96079 -2122.0576,229.16229 -2115.5282,227.13898 -2110.2205,226.49442 -2106.1347,227.25683 -2102.0491,228.01924 -2098.1198,230.18924 -2094.298,233.70804 L -2109.9958,240.27615 C -2111.4033,239.27916 -2112.6641,238.71184 -2113.7001,238.47726 -2115.4107,238.09606 -2117.0531,238.1744 -2118.6952,238.6729 -2121.217,239.4744 -2123.0156,241.07749 -2124.0028,243.44291 -2124.7359,245.08501 -2124.8432,247.26453 -2124.3153,249.97205 L -2091.3953,239.66061 -2090.8282,241.53665 C -2089.0689,247.18628 -2088.5706,252.03442 -2089.3037,256.15923 -2090.0661,260.24495 -2091.8934,263.79326 -2094.8746,266.77446 -2097.8557,269.70679 -2102.3915,272.15035 -2108.5396,274.10523 -2111.8495,275.1401 -2114.9502,275.67366 -2117.8737,275.71883 Z M -2113.5156,264.58191 C -2113.2856,264.58395 -2113.0539,264.57522 -2112.8206,264.55567 -2112.1657,264.47747 -2111.5596,264.37035 -2110.8754,264.13576 -2108.6174,263.45155 -2107.0146,262.19014 -2106.0958,260.39165 -2105.1086,258.56382 -2104.9527,256.04209 -2105.6369,252.75787 L -2121.8325,257.84043 C -2120.7182,260.28404 -2119.4966,262.03427 -2118.1282,262.99217 -2116.6571,264.02704 -2115.1261,264.56761 -2113.5156,264.58191 Z M -1881.6356,256.19899 -1880.756,253.59847 C -1880.0229,251.57516 -1879.7979,249.81567 -1880.0227,248.29086 -1880.2182,246.84424 -1880.9415,245.38815 -1882.2415,243.94154 -1883.4633,242.52425 -1884.9879,241.53703 -1886.7865,240.88215 -1888.5459,240.31523 -1889.9929,240.23732 -1891.1756,240.73582 -1892.3192,241.22454 -1893.1211,242.14304 -1893.5805,243.40394 -1893.9616,244.54755 -1893.8541,245.69075 -1893.2774,246.88323 -1892.6617,248.02685 -1890.8723,249.62994 -1887.8911,251.65325 -1885.6821,253.09987 -1883.5806,254.62531 -1881.6356,256.19899 Z M -2063.4504,246.15079 -2065.0918,232.94538 -2040.2747,229.88599 -2038.6325,243.10094 Z"
       id="path835"
       inkscape:connector-curvature="0" /></g></svg>